<?xml version="1.0" encoding="UTF-8" standalone="no"?>
<!-- Created with Inkscape (http://www.inkscape.org/) -->

<svg
   xmlns:dc="http://purl.org/dc/elements/1.1/"
   xmlns:cc="http://creativecommons.org/ns#"
   xmlns:rdf="http://www.w3.org/1999/02/22-rdf-syntax-ns#"
   xmlns:svg="http://www.w3.org/2000/svg"
   xmlns="http://www.w3.org/2000/svg"
   xmlns:xlink="http://www.w3.org/1999/xlink"
   xmlns:sodipodi="http://sodipodi.sourceforge.net/DTD/sodipodi-0.dtd"
   xmlns:inkscape="http://www.inkscape.org/namespaces/inkscape"
   width="32px"
   height="32px"
   id="svg3082"
   version="1.1"
   inkscape:version="0.48.3.1 r9886"
   sodipodi:docname="icon.svg">
  <defs
     id="defs3084" />
  <sodipodi:namedview
     id="base"
     pagecolor="#ffffff"
     bordercolor="#666666"
     borderopacity="1.0"
     inkscape:pageopacity="0.0"
     inkscape:pageshadow="2"
     inkscape:zoom="5.7065873"
     inkscape:cx="59.523311"
     inkscape:cy="3.886171"
     inkscape:current-layer="layer1"
     showgrid="true"
     inkscape:grid-bbox="true"
     inkscape:document-units="px"
     inkscape:window-width="1366"
     inkscape:window-height="713"
     inkscape:window-x="-2"
     inkscape:window-y="-3"
     inkscape:window-maximized="1" />
  <metadata
     id="metadata3087">
    <rdf:RDF>
      <cc:Work
         rdf:about="">
        <dc:format>image/svg+xml</dc:format>
        <dc:type
           rdf:resource="http://purl.org/dc/dcmitype/StillImage" />
        <dc:title></dc:title>
      </cc:Work>
    </rdf:RDF>
  </metadata>
  <g
     id="layer1"
     inkscape:label="Layer 1"
     inkscape:groupmode="layer">
    <g
       id="g4297"
       inkscape:export-filename="/home/imp/projects/i2pdf-py/i2pdf-.png"
       inkscape:export-xdpi="90"
       inkscape:export-ydpi="90">
      <g
         transform="matrix(1.137427,0,0,1.1212047,-0.88376694,-1.7270313)"
         id="g4268">
        <g
           id="g4262"
           transform="matrix(1.0799717,0,0,1.0799717,-27.356064,0.1983155)">
          <rect
             y="2.6786869"
             x="26.299805"
             height="15.133597"
             width="19.60206"
             id="rect4260"
             style="fill:#ffffff;stroke:#666666;stroke-width:0.5;stroke-miterlimit:4;stroke-dasharray:none" />
          <image
             width="18.069637"
             height="13.552228"
             xlink:href="file:///home/imp/Obr%C3%A1zky/honda/u/DSCF2840u.JPG"
             id="image3489"
             x="27.066017"
             y="3.4693716" />
        </g>
        <g
           transform="matrix(0.07017144,0,0,0.07017144,2.7066447,0.50940066)"
           id="g32">
          <path
             d="m 115.929,262.786 c 11.188,-21.929 23.903,-46.636 34.08,-71.441 l 0,0 4.024,-9.792 C 140.74,130.969 132.769,90.365 139.89,64.11 l 0,0 c 1.917,-6.845 9.845,-10.998 18.321,-10.998 l 0,0 5.165,0.076 h 0.948 c 11.604,-0.178 17.068,14.583 17.688,20.322 l 0,0 c 1.024,9.558 -3.398,25.734 -3.398,25.734 l 0,0 c 0,-6.532 0.256,-17.087 -3.867,-26.195 l 0,0 C 169.948,62.51 165.364,56.214 161.254,55.216 l 0,0 c -2.075,1.386 -4.092,4.256 -4.783,9.777 l 0,0 c -1.431,7.741 -1.86,17.512 -1.86,22.549 l 0,0 c 0,17.796 3.504,41.285 10.39,65.499 l 0,0 c 1.299,-3.749 2.442,-7.351 3.351,-10.726 l 0,0 c 1.412,-5.319 10.389,-40.578 10.389,-40.578 l 0,0 c 0,0 -2.262,46.935 -5.422,61.136 l 0,0 c -0.677,3.001 -1.424,5.969 -2.202,9.007 l 0,0 c 11.355,31.727 29.652,60.044 51.479,80.424 l 0,0 c 8.606,8.043 19.475,14.528 29.762,20.439 l 0,0 c 22.465,-3.21 43.149,-4.726 60.405,-4.535 l 0,0 c 22.894,0.302 39.699,3.688 46.504,10.391 l 0,0 c 3.332,3.258 4.684,7.193 5.104,11.604 l 0,0 c 0.1,1.716 -0.736,5.748 -0.981,6.76 l 0,0 c 0.245,-1.225 0.245,-7.249 -18.133,-13.115 l 0,0 c -14.474,-4.627 -41.563,-4.483 -74.068,-1.023 l 0,0 c 37.597,18.394 74.225,27.533 85.833,22.054 l 0,0 c 2.838,-1.383 6.28,-6.099 6.28,-6.099 l 0,0 c 0,0 -2.046,9.296 -3.515,11.62 l 0,0 c -1.875,2.525 -5.553,5.26 -9.04,6.182 l 0,0 c -18.332,4.891 -66.051,-6.427 -107.651,-30.197 l 0,0 c -46.478,6.845 -97.521,19.49 -138.436,32.91 l 0,0 C 64.453,389.758 34.225,422.12 9.634,409.809 l 0,0 -9.041,-4.546 c -3.675,-2.102 -4.236,-7.219 -3.386,-11.386 l 0,0 C 0.074,379.85 17.663,358.723 52.994,337.626 l 0,0 c 3.803,-2.301 20.743,-11.258 20.743,-11.258 l 0,0 c 0,0 -12.541,12.138 -15.479,14.52 l 0,0 C 30.058,363.997 9.245,393.07 9.764,404.341 l 0,0 0.102,0.983 C 33.821,401.91 69.745,353.152 115.929,262.786 m 14.636,7.494 c -7.714,14.528 -15.254,27.998 -22.215,40.366 l 0,0 c 38.506,-16.133 79.95,-26.457 119.401,-33.791 l 0,0 c -5.302,-3.661 -10.449,-7.538 -15.292,-11.636 l 0,0 c -21.725,-18.393 -38.288,-41.34 -50.294,-65.487 l 0,0 c -7.614,20.513 -16.668,42.311 -31.6,70.548"
             id="path4266"
             inkscape:connector-curvature="0"
             style="fill:#ffffff;stroke:#ffffff;stroke-width:18.09853172;stroke-miterlimit:4;stroke-opacity:1;stroke-dasharray:none" />
          <path
             style="fill:#f91d0a;stroke:none"
             inkscape:connector-curvature="0"
             id="path4463"
             d="m 115.929,262.786 c 11.188,-21.929 23.903,-46.636 34.08,-71.441 l 0,0 4.024,-9.792 C 140.74,130.969 132.769,90.365 139.89,64.11 l 0,0 c 1.917,-6.845 9.845,-10.998 18.321,-10.998 l 0,0 5.165,0.076 h 0.948 c 11.604,-0.178 17.068,14.583 17.688,20.322 l 0,0 c 1.024,9.558 -3.398,25.734 -3.398,25.734 l 0,0 c 0,-6.532 0.256,-17.087 -3.867,-26.195 l 0,0 C 169.948,62.51 165.364,56.214 161.254,55.216 l 0,0 c -2.075,1.386 -4.092,4.256 -4.783,9.777 l 0,0 c -1.431,7.741 -1.86,17.512 -1.86,22.549 l 0,0 c 0,17.796 3.504,41.285 10.39,65.499 l 0,0 c 1.299,-3.749 2.442,-7.351 3.351,-10.726 l 0,0 c 1.412,-5.319 10.389,-40.578 10.389,-40.578 l 0,0 c 0,0 -2.262,46.935 -5.422,61.136 l 0,0 c -0.677,3.001 -1.424,5.969 -2.202,9.007 l 0,0 c 11.355,31.727 29.652,60.044 51.479,80.424 l 0,0 c 8.606,8.043 19.475,14.528 29.762,20.439 l 0,0 c 22.465,-3.21 43.149,-4.726 60.405,-4.535 l 0,0 c 22.894,0.302 39.699,3.688 46.504,10.391 l 0,0 c 3.332,3.258 4.684,7.193 5.104,11.604 l 0,0 c 0.1,1.716 -0.736,5.748 -0.981,6.76 l 0,0 c 0.245,-1.225 0.245,-7.249 -18.133,-13.115 l 0,0 c -14.474,-4.627 -41.563,-4.483 -74.068,-1.023 l 0,0 c 37.597,18.394 74.225,27.533 85.833,22.054 l 0,0 c 2.838,-1.383 6.28,-6.099 6.28,-6.099 l 0,0 c 0,0 -2.046,9.296 -3.515,11.62 l 0,0 c -1.875,2.525 -5.553,5.26 -9.04,6.182 l 0,0 c -18.332,4.891 -66.051,-6.427 -107.651,-30.197 l 0,0 c -46.478,6.845 -97.521,19.49 -138.436,32.91 l 0,0 C 64.453,389.758 34.225,422.12 9.634,409.809 l 0,0 -9.041,-4.546 c -3.675,-2.102 -4.236,-7.219 -3.386,-11.386 l 0,0 C 0.074,379.85 17.663,358.723 52.994,337.626 l 0,0 c 3.803,-2.301 20.743,-11.258 20.743,-11.258 l 0,0 c 0,0 -12.541,12.138 -15.479,14.52 l 0,0 C 30.058,363.997 9.245,393.07 9.764,404.341 l 0,0 0.102,0.983 C 33.821,401.91 69.745,353.152 115.929,262.786 m 14.636,7.494 c -7.714,14.528 -15.254,27.998 -22.215,40.366 l 0,0 c 38.506,-16.133 79.95,-26.457 119.401,-33.791 l 0,0 c -5.302,-3.661 -10.449,-7.538 -15.292,-11.636 l 0,0 c -21.725,-18.393 -38.288,-41.34 -50.294,-65.487 l 0,0 c -7.614,20.513 -16.668,42.311 -31.6,70.548" />
        </g>
      </g>
      <rect
         y="-1.0061396e-16"
         x="0"
         height="32"
         width="32"
         id="rect4295"
         style="opacity:0;fill:#ffffff;stroke:none" />
    </g>
  </g>
</svg>
